<svg width="64" height="64" viewBox="0 0 64 64" fill="none" xmlns="http://www.w3.org/2000/svg">
<circle cx="32" cy="32" r="32" fill="#0D5C63" fill-opacity="0.1"/>
<path fill-rule="evenodd" clip-rule="evenodd" d="M37.2661 23.7174H45.5754C45.8922 23.7174 46.1528 23.9779 46.1528 24.2948V29.1324H46.2091C46.5589 29.1324 46.8429 29.4188 46.8429 29.7662V30.4727C46.8429 30.8271 46.5518 31.1158 46.1997 31.1158H41.74C45.0543 31.4116 46.9485 34.4935 46.7419 38.5003H43.7938C43.7915 40.432 42.2235 41.9953 40.2917 41.9953C38.36 41.9953 36.792 40.4297 36.7897 38.5003H27.7833C27.7809 38.4369 27.7786 38.3759 27.7763 38.3125C27.7833 38.7373 27.7575 39.188 27.6964 39.6692L19.8473 35.9723L18 35.0991C19.4835 33.4115 21.2721 32.7026 23.4362 33.1908C23.7695 33.2753 24.084 33.3739 24.3821 33.4866C24.077 33.3692 23.7554 33.2706 23.4174 33.1861L25.8867 25.0529L24.7718 25.0318C24.5418 25.0271 24.2929 25.0905 24.1357 24.9778C23.8634 24.9708 23.6263 24.8065 23.462 24.5483C23.3142 24.3182 23.225 24.0037 23.225 23.661C23.225 23.3183 23.3165 23.0038 23.462 22.7738C23.5841 22.5836 23.7437 22.4451 23.9268 22.3818C23.9291 22.3442 23.9315 22.3184 23.9362 22.3114C24.1991 21.8912 24.7108 22.0179 25.1661 22.0179L25.6098 22.0461C25.9313 22.086 26.2459 22.1916 26.5486 22.3653L27.0557 22.6494H27.4664L28.8466 22.9169C29.2973 23.0038 29.363 22.9662 29.2574 23.5225C29.2433 23.5929 29.2268 23.6634 29.2034 23.7314C29.0672 24.1375 28.9593 23.9873 28.5391 23.9004L27.2458 23.6328C27.2951 24.1539 27.1308 24.7924 26.8984 25.5388C27.6425 26.1679 27.9758 27.0645 27.4688 28.2452L26.2341 32.0501C28.3044 33.5171 29.5484 34.8456 29.6188 37.0262H32.3581C34.0457 35.747 33.7664 33.4701 31.9144 32.0148V31.1182V29.7474C31.9168 29.3132 32.1492 29.1183 32.5811 29.1301H36.6887V24.2948C36.6887 23.9779 36.9493 23.7174 37.2661 23.7174ZM39.2848 28.2569H43.5591C43.592 28.2569 43.6201 28.2851 43.6201 28.3179V28.44C43.6201 28.4729 43.592 28.501 43.5591 28.501H39.2848C39.2519 28.501 39.2237 28.4729 39.2237 28.44V28.3179C39.2237 28.2851 39.2496 28.2569 39.2848 28.2569ZM41.5991 25.5998C42.8502 25.7008 43.7563 26.642 43.599 27.8814H39.2425C39.0899 26.635 39.9983 25.6914 41.2588 25.5998V25.2501H40.9114C40.8762 25.2501 40.848 25.2219 40.848 25.1867V24.959C40.848 24.9238 40.8762 24.8957 40.9114 24.8957H41.9371C41.9724 24.8957 42.0005 24.9238 42.0005 24.959V25.1867C42.0005 25.2219 41.9724 25.2501 41.9371 25.2501H41.5968V25.5998H41.5991ZM19.8567 35.977L22.9785 37.4557L21.9645 36.991C21.2674 37.1389 20.7463 37.7585 20.7463 38.4979C20.7463 39.35 21.4364 40.0401 22.2884 40.0401C23.1405 40.0401 23.8305 39.35 23.8305 38.4979C23.8305 38.235 23.7648 37.9886 23.6498 37.7703L25.7811 38.7796C25.6379 40.5823 24.1286 42 22.2908 42C20.3566 42 18.7887 40.432 18.7887 38.4979C18.784 37.5074 19.1947 36.6131 19.8567 35.977ZM23.9315 22.9827C23.9456 23.4333 23.9761 24.0131 23.9972 24.4027C23.9596 24.3699 23.9221 24.3276 23.8892 24.2736C23.7906 24.1211 23.732 23.9028 23.732 23.6587C23.732 23.4146 23.793 23.1963 23.8892 23.0437C23.9033 23.0226 23.9174 23.0014 23.9315 22.9827ZM38.7496 38.5026H41.8339C41.8315 39.3523 41.1414 40.0377 40.2917 40.0377C39.442 40.0401 38.7519 39.3523 38.7496 38.5026Z" fill="#0D5C63"/>
</svg>
