<svg width="64" height="64" viewBox="0 0 64 64" fill="none" xmlns="http://www.w3.org/2000/svg">
<circle cx="32" cy="32" r="32" fill="#0D5C63" fill-opacity="0.1"/>
<path d="M25.6693 40.6224L29.73 35.6985L31.5874 38.0677L28.0073 42.6205C26.6361 44.3627 24.099 42.5268 25.6693 40.6224ZM30.4116 29.4092C30.7984 28.1475 30.6206 27.0693 29.1675 25.4677L25.6166 21.1961C25.1127 20.6043 23.9251 21.4735 24.4212 22.1903L27.2612 25.6884C27.7983 26.3408 26.8002 27.2041 26.2455 26.5322L23.3079 22.9149C22.7611 22.288 21.6302 23.1161 22.2024 23.8329C23.0306 24.829 24.3119 26.456 25.14 27.4522C25.7142 28.0362 24.8412 28.9014 24.2748 28.1729L21.3587 24.579C20.9309 24.1142 20.2317 24.4033 20.0461 24.9462C19.8469 25.5263 20.3372 25.9502 20.6712 26.3799L23.9251 30.5831C24.9349 31.753 26.0639 32.4464 27.3764 32.0538C27.5776 31.9933 27.8237 31.8702 28.0874 31.7081L36.8298 42.9936C37.3005 43.601 38.2087 43.6654 38.7986 43.1752L38.9333 43.0639C39.5974 42.5111 39.7048 41.5013 39.1365 40.849L29.8784 30.212C30.148 29.9112 30.3452 29.626 30.4116 29.4092ZM32.8863 31.8702L34.3258 30.1241C32.4742 25.5341 39.3357 19.4168 42.6619 22.2294C46.703 25.6494 40.697 33.8918 36.4762 31.8546L34.7711 34.0207L32.8863 31.8702Z" fill="#0D5C63"/>
</svg>
