<svg width="64" height="64" viewBox="0 0 64 64" fill="none" xmlns="http://www.w3.org/2000/svg">
<circle cx="32" cy="32" r="32" fill="#0D5C63" fill-opacity="0.1"/>
<path d="M31.0895 35.0568H28.5946C26.0298 35.0568 24.7474 35.0568 24.2103 34.2161C23.6733 33.3752 24.212 32.2111 25.2895 29.8827L30.2633 19.1355C30.9448 17.6632 31.2853 16.927 31.6427 17.0057C32 17.0844 32 17.8957 32 19.5182V27.5879C32 28.0173 32 28.2321 32.1333 28.3654C32.2666 28.4988 32.4813 28.4988 32.9105 28.4988H35.4055C37.9703 28.4988 39.2527 28.4988 39.7897 29.3395C40.3267 30.1804 39.788 31.3444 38.7106 33.6727L33.7367 44.42C33.0553 45.8924 32.7148 46.6285 32.3573 46.5498C32 46.4711 32 45.6598 32 44.0374V35.9676C32 35.5382 32 35.3235 31.8667 35.1901C31.7334 35.0568 31.5187 35.0568 31.0895 35.0568Z" fill="#0D5C63"/>
</svg>
