<svg width="220" height="62" viewBox="0 0 220 62" fill="none" xmlns="http://www.w3.org/2000/svg">
<path d="M10.72 59.5671C10.207 54.5018 9.82232 47 9.69408 38.9212C9.05291 38.8571 8.41173 38.7289 7.77055 38.6006C3.73114 37.8312 0.461141 35.1383 0.397024 32.1889C0.332906 30.9706 1.35879 29.4959 2.32055 29.1753C3.85938 28.7906 6.55232 29.6242 9.69408 30.9706C9.7582 19.6218 10.3353 8.14474 11.5535 0.899447C12.0664 0.194154 14.4388 0.771214 14.3106 1.79709C13.1564 8.65768 12.4511 20.3271 12.2588 32.1889C14.1823 33.1506 16.2341 34.3047 18.2217 35.3947C22.9664 33.2147 29.3782 28.8547 34.5717 23.9177C37.457 21.2247 44.6382 12.5047 44.6382 7.6318C44.6382 6.92651 44.51 6.34945 44.1894 5.83651C43.8688 5.32356 43.9329 4.81062 44.3817 4.74651C44.7664 4.68239 45.4076 5.00298 45.6 5.51592C45.9847 6.41357 46.177 7.43945 46.177 8.46533C46.177 14.3 40.5988 21.7377 36.4953 25.6489C31.2376 30.65 24.5053 34.9459 20.0811 36.9977C30.4682 44.1789 37.457 49.8853 47.5876 60.0159C47.9723 60.4006 48.0364 60.8494 47.6517 61.0418C47.3311 61.2342 46.69 61.17 46.3694 60.7212C41.0476 55.3994 29.0576 45.3971 17.9011 37.9594C16.1058 38.5365 14.1182 38.8571 12.1947 38.9212C12.1947 47 12.387 54.7583 12.9641 60.5289L13.1564 60.8494C13.1564 61.17 13.0282 61.3624 12.6435 61.4265C11.9382 61.3624 11.1688 60.1442 10.72 59.5671ZM1.99996 32.83C2.51291 34.433 4.88526 35.9718 7.64232 36.6771C8.28349 36.8695 8.98879 36.9336 9.69408 36.9977V33.6636C6.74467 32.253 3.73114 30.9706 2.51291 31.4194C1.93585 31.6118 1.93585 32.3812 1.99996 32.83ZM14.6311 36.1642L12.1947 34.9459V36.9977C13.0282 36.9336 13.7976 36.8053 14.567 36.5489C14.567 36.4206 14.6311 36.2924 14.6311 36.1642Z" fill="white"/>
<path d="M42.4126 44.1789C41.4509 43.153 41.002 40.973 41.002 38.8571C41.002 36.8695 41.3867 34.8818 42.092 33.7918C42.1561 33.4712 42.7973 33.4071 43.5667 33.5994C44.272 33.8559 44.6567 34.3689 44.5926 34.6894C44.0797 35.2024 42.7973 42.4477 43.7591 43.2812C44.272 43.6659 44.9132 43.8583 45.6185 43.8583C49.5938 43.8583 56.3903 38.7289 58.3138 36.8053C58.5703 36.5489 59.2114 36.9336 58.442 38.3442C57.2238 40.5883 51.3891 45.6536 46.965 45.8459C45.362 45.91 43.6309 45.5253 42.4126 44.1789ZM43.7591 29.3036C42.9897 29.0471 42.605 28.47 42.9256 28.2136C43.0538 28.0212 43.5026 26.7389 43.6309 26.4183L43.7591 25.4565C43.7591 25.0718 44.4644 24.9436 45.1056 25.2C45.9391 25.3924 46.452 25.9053 46.3238 26.2259C46.3238 26.4824 46.3238 26.9312 46.1314 27.3159C46.0032 27.6365 45.4903 29.0471 45.2979 29.3677C45.1056 29.6242 44.3361 29.6242 43.7591 29.3036Z" fill="white"/>
<path d="M80.512 44.1147C78.2679 43.4095 75.9597 41.2936 74.6773 38.793C71.792 41.1653 70.4455 42.3194 68.7144 43.4736C68.2014 43.73 66.9832 43.0889 66.5985 42.3836C65.9573 40.973 65.5726 39.4983 64.9956 36.9977C61.7256 39.1136 59.9303 42.5118 57.4297 44.6918C56.9167 45.1406 55.2497 43.8583 55.0573 43.0889C54.9932 42.1271 54.9291 41.1653 54.9291 40.2677C54.9291 38.2159 55.1214 36.3565 55.3779 34.7536C55.5703 33.6636 57.6861 35.0742 57.4938 35.9077C57.5579 37.5747 57.3014 38.7289 57.3656 40.8447C59.6097 38.4083 61.7897 35.8436 64.5467 34.4971C65.0597 34.2406 66.1497 34.8818 66.6626 35.5871C67.3679 37.2542 67.432 38.6006 68.0091 40.8447L74.2285 35.7794C74.6773 35.4589 75.8956 36.1 76.3444 36.8053C77.1779 38.4724 77.0497 41.0371 79.2938 41.7424C80.6403 42.1271 82.7561 42.2553 85.385 42.2553C92.9508 42.2553 103.979 40.973 106.864 40.1395C107.313 40.0112 109.686 39.4342 110.006 39.9471C110.519 40.46 107.826 41.4859 107.377 41.6142C102.825 43.0889 93.4638 44.6277 86.3467 44.6277C84.1026 44.6277 82.115 44.4353 80.512 44.1147Z" fill="white"/>
<path d="M151.876 48.4106C148.991 55.0147 144.438 61.2342 138.796 61.1059C131.038 60.7853 126.678 52.1936 125.524 43.2171C125.267 40.973 125.139 38.6647 125.139 36.4847C125.139 24.6871 128.794 14.2359 132.192 12.5047C132.769 12.2483 132.897 13.723 132.705 13.9153C130.012 17.4418 127.383 27.893 127.383 37.9594C127.383 39.6265 127.447 41.2294 127.575 42.8324C128.217 50.3342 131.551 58.0283 137.514 58.6694C142.579 59.1824 148.414 51.5524 150.786 44.243C149.76 39.37 149.311 34.5612 149.311 30.5859C149.311 25.9694 149.888 22.443 150.85 21.2889C152.966 18.9165 155.467 22.443 155.659 27.2518C155.787 31.163 154.954 38.4724 152.966 45.8459C153.735 51.2959 157.198 58.2206 163.225 58.7336C170.855 58.99 177.138 46.0383 179.382 33.343C179.831 30.7783 180.088 27.4442 180.088 23.8536C180.088 15.8389 178.677 6.67004 174.317 2.1818C173.868 1.60474 173.548 0.835329 173.868 0.450625C173.932 -0.0623176 174.317 -0.0623176 174.894 0.450625C180.088 5.77239 181.883 15.8389 181.883 24.8153C181.883 28.2136 181.691 31.4195 181.242 34.1765C179.062 49.1159 172.329 62.1959 163.738 61.17C157.711 60.4006 153.735 54.6942 151.876 48.4106ZM153.671 27.7647C153.8 26.9953 153.415 23.4047 152.517 22.7636C151.876 24.3024 151.107 27.1236 151.107 31.8683C151.107 34.433 151.299 37.5747 151.876 41.3577C153.03 36.613 153.864 31.0989 153.671 27.7647Z" fill="white"/>
<path d="M203.143 37.8953C201.732 38.4083 197.565 38.9853 193.654 38.793C193.91 39.6265 193.974 40.5883 193.782 41.55C193.205 44.7559 190.576 46.3589 187.627 46.1665C185.254 46.0383 183.651 44.0506 183.331 42.2553C182.882 39.5624 184.549 36.4847 186.024 35.9718C186.152 35.9718 186.216 35.9077 186.344 35.9077C186.601 35.01 187.049 34.3047 188.332 34.3689C190.063 34.6253 191.474 35.4589 192.435 36.613C194.038 36.8053 195.705 36.8694 197.18 36.8694C200.194 36.8694 202.694 36.613 203.271 36.613C205.131 36.5489 204.682 37.3824 203.143 37.8953ZM187.306 37.3824C186.472 38.0236 185.254 40.2677 185.575 42.063C185.895 43.9224 186.601 44.6277 187.819 44.5636C190.64 44.4353 192.051 40.7806 191.025 38.4724C189.55 38.2159 188.332 37.8312 187.434 37.2542L187.306 37.3824Z" fill="white"/>
<path d="M218.095 37.8953C216.685 38.4083 212.517 38.9853 208.606 38.793C208.863 39.6265 208.927 40.5883 208.734 41.55C208.157 44.7559 205.528 46.3589 202.579 46.1665C200.207 46.0383 198.604 44.0506 198.283 42.2553C197.834 39.5624 199.501 36.4847 200.976 35.9718C201.104 35.9718 201.168 35.9077 201.297 35.9077C201.553 35.01 202.002 34.3047 203.284 34.3689C205.015 34.6253 206.426 35.4589 207.388 36.613C208.991 36.8053 210.658 36.8694 212.133 36.8694C215.146 36.8694 217.647 36.613 218.224 36.613C220.083 36.5489 219.634 37.3824 218.095 37.8953ZM202.258 37.3824C201.425 38.0236 200.207 40.2677 200.527 42.063C200.848 43.9224 201.553 44.6277 202.771 44.5636C205.593 44.4353 207.003 40.7806 205.977 38.4724C204.503 38.2159 203.284 37.8312 202.387 37.2542L202.258 37.3824Z" fill="white"/>
</svg>
