<svg width="158" height="155" viewBox="0 0 158 155" fill="none" xmlns="http://www.w3.org/2000/svg">
<path d="M72.5694 0.382259C74.2123 0.382259 75.5353 1.69477 75.5353 3.30296V29.1878C75.5353 30.4749 74.7191 31.4934 73.58 32.012C72.4381 32.5321 71.0254 32.5213 69.9114 31.7892C63.4675 27.5542 55.8007 25.0977 47.574 25.0977C39.2625 25.0977 31.5225 27.6051 25.0378 31.9207C23.9235 32.6622 22.5029 32.6782 21.3527 32.1591C20.2055 31.6413 19.3823 30.62 19.3823 29.3276V3.30296C19.3823 1.69478 20.7052 0.382259 22.3481 0.382259H72.5694Z" fill="#F4F4F4" stroke="#DDDDDD" stroke-width="0.764518"/>
<path d="M136.093 0.382381C137.736 0.382381 139.059 1.6949 139.059 3.30308V29.1879C139.059 30.4751 138.243 31.4935 137.103 32.0122C135.962 32.5322 134.549 32.5214 133.435 31.7893C126.991 27.5544 119.324 25.0978 111.097 25.0978C102.786 25.0978 95.046 27.6053 88.5612 31.9208C87.4469 32.6623 86.0264 32.6783 84.8762 32.1592C83.7289 31.6414 82.9057 30.6201 82.9057 29.3278V3.30308C82.9057 1.6949 84.2286 0.382381 85.8715 0.382381H136.093Z" fill="#F4F4F4" stroke="#DDDDDD" stroke-width="0.764518"/>
<path d="M22.348 154.101C20.7051 154.101 19.3822 152.789 19.3822 151.18L19.3822 125.296C19.3822 124.008 20.1984 122.99 21.3374 122.471C22.4794 121.951 23.8921 121.962 25.0061 122.694C31.45 126.929 39.1168 129.386 47.3435 129.386C55.655 129.386 63.395 126.878 69.8797 122.563C70.994 121.821 72.4146 121.805 73.5647 122.324C74.712 122.842 75.5352 123.863 75.5352 125.156L75.5352 151.18C75.5352 152.789 74.2123 154.101 72.5694 154.101L22.348 154.101Z" fill="#F4F4F4" stroke="#DDDDDD" stroke-width="0.764518"/>
<path d="M85.8717 154.101C84.2288 154.101 82.9059 152.789 82.9059 151.18L82.9059 125.296C82.9059 124.008 83.7221 122.99 84.8611 122.471C86.0031 121.951 87.4158 121.962 88.5298 122.694C94.9737 126.929 102.641 129.386 110.867 129.386C119.179 129.386 126.919 126.878 133.403 122.563C134.518 121.821 135.938 121.805 137.088 122.324C138.236 122.842 139.059 123.863 139.059 125.156L139.059 151.18C139.059 152.789 137.736 154.101 136.093 154.101L85.8717 154.101Z" fill="#F4F4F4" stroke="#DDDDDD" stroke-width="0.764518"/>
<g filter="url(#filter0_d_205_5437)">
<rect x="19" y="40.5449" width="120.441" height="73.3937" rx="7.54961" fill="#F4F4F4"/>
<rect x="19.3823" y="40.9272" width="119.676" height="72.6292" rx="7.16736" stroke="#DDDDDD" stroke-width="0.764518"/>
</g>
<defs>
<filter id="filter0_d_205_5437" x="0.651569" y="22.1965" width="157.138" height="110.091" filterUnits="userSpaceOnUse" color-interpolation-filters="sRGB">
<feFlood flood-opacity="0" result="BackgroundImageFix"/>
<feColorMatrix in="SourceAlpha" type="matrix" values="0 0 0 0 0 0 0 0 0 0 0 0 0 0 0 0 0 0 127 0" result="hardAlpha"/>
<feOffset/>
<feGaussianBlur stdDeviation="9.17422"/>
<feComposite in2="hardAlpha" operator="out"/>
<feColorMatrix type="matrix" values="0 0 0 0 0 0 0 0 0 0 0 0 0 0 0 0 0 0 0.25 0"/>
<feBlend mode="normal" in2="BackgroundImageFix" result="effect1_dropShadow_205_5437"/>
<feBlend mode="normal" in="SourceGraphic" in2="effect1_dropShadow_205_5437" result="shape"/>
</filter>
</defs>
</svg>
